<svg width="112" height="112" viewBox="0 0 112 112" fill="none" xmlns="http://www.w3.org/2000/svg">
<circle cx="50" cy="50" r="50" fill="black"/>
<path d="M80.375 59.25H78.75V48.2711C78.75 46.9812 78.232 45.7422 77.318 44.8281L67.1719 34.682C66.2578 33.768 65.0187 33.25 63.7289 33.25H59.25V28.375C59.25 25.6836 57.0664 23.5 54.375 23.5H28.375C25.6836 23.5 23.5 25.6836 23.5 28.375V33.25H17.8125C17.3656 33.25 17 33.6156 17 34.0625V35.6875C17 36.1344 17.3656 36.5 17.8125 36.5H45.4375C45.8844 36.5 46.25 36.8656 46.25 37.3125V38.9375C46.25 39.3844 45.8844 39.75 45.4375 39.75H21.0625C20.6156 39.75 20.25 40.1156 20.25 40.5625V42.1875C20.25 42.6344 20.6156 43 21.0625 43H42.1875C42.6344 43 43 43.3656 43 43.8125V45.4375C43 45.8844 42.6344 46.25 42.1875 46.25H17.8125C17.3656 46.25 17 46.6156 17 47.0625V48.6875C17 49.1344 17.3656 49.5 17.8125 49.5H38.9375C39.3844 49.5 39.75 49.8656 39.75 50.3125V51.9375C39.75 52.3844 39.3844 52.75 38.9375 52.75H23.5V65.75C23.5 71.1328 27.8672 75.5 33.25 75.5C38.6328 75.5 43 71.1328 43 65.75H56C56 71.1328 60.3672 75.5 65.75 75.5C71.1328 75.5 75.5 71.1328 75.5 65.75H80.375C81.2688 65.75 82 65.0187 82 64.125V60.875C82 59.9813 81.2688 59.25 80.375 59.25ZM33.25 70.625C30.5586 70.625 28.375 68.4414 28.375 65.75C28.375 63.0586 30.5586 60.875 33.25 60.875C35.9414 60.875 38.125 63.0586 38.125 65.75C38.125 68.4414 35.9414 70.625 33.25 70.625ZM65.75 70.625C63.0586 70.625 60.875 68.4414 60.875 65.75C60.875 63.0586 63.0586 60.875 65.75 60.875C68.4414 60.875 70.625 63.0586 70.625 65.75C70.625 68.4414 68.4414 70.625 65.75 70.625ZM73.875 49.5H59.25V38.125H63.7289L73.875 48.2711V49.5Z" fill="white"/>
</svg>
