<svg width="29" height="27" viewBox="0 0 29 27" fill="none" xmlns="http://www.w3.org/2000/svg">
<path d="M6.49134 27H0.479018V8.97348H6.49134V27ZM3.48194 6.5145C1.5594 6.5145 0 5.03188 0 3.24188C1.37608e-08 2.38208 0.366846 1.5575 1.01984 0.949525C1.67283 0.341554 2.55847 0 3.48194 0C4.40541 0 5.29106 0.341554 5.94405 0.949525C6.59704 1.5575 6.96388 2.38208 6.96388 3.24188C6.96388 5.03188 5.40384 6.5145 3.48194 6.5145ZM28.9935 27H22.9942V18.2248C22.9942 16.1335 22.9488 13.4515 19.8682 13.4515C16.7423 13.4515 16.2633 15.7236 16.2633 18.0741V27H10.2575V8.97348H16.0238V11.4325H16.1079C16.9106 10.0161 18.8714 8.52146 21.7966 8.52146C27.8814 8.52146 29 12.2521 29 17.0978V27H28.9935Z" fill="white"/>
</svg>
