<svg width="16" height="13" viewBox="0 0 16 13" fill="none" xmlns="http://www.w3.org/2000/svg">
<path d="M15.2 3.373V10.5C15.2 11.163 14.9629 11.7989 14.541 12.2678C14.119 12.7366 13.5467 13 12.95 13H3.04999C2.45325 13 1.88095 12.7366 1.459 12.2678C1.03704 11.7989 0.799988 11.163 0.799988 10.5V3.373L7.77139 7.931C7.84065 7.97638 7.91958 8.00032 7.99999 8.00032C8.08039 8.00032 8.15933 7.97638 8.22859 7.931L15.2 3.373ZM12.95 3.09527e-08C13.5036 -9.6716e-05 14.0378 0.226607 14.4505 0.63674C14.8631 1.04687 15.1251 1.61164 15.1865 2.223L7.99999 6.92L0.813488 2.223C0.87483 1.61164 1.13688 1.04687 1.5495 0.63674C1.96213 0.226607 2.49636 -9.6716e-05 3.04999 3.09527e-08H12.95Z" fill="white"/>
</svg>
