<svg width="18" height="18" viewBox="0 0 18 18" fill="none" xmlns="http://www.w3.org/2000/svg">
<path d="M9 18C4.02943 18 0 13.9706 0 9C0 4.02944 4.02943 4.02331e-07 9 4.02331e-07C13.9706 4.02331e-07 18 4.02944 18 9C18 13.9706 13.9706 18 9 18ZM5.76562 14.4251C5.95105 14.436 6.11866 14.3251 6.24573 14.1284L7.47619 11.7949C7.60575 11.5184 7.53213 11.2224 7.33887 11.0248L6.77527 10.4612C6.74049 10.4135 6.7176 10.3598 6.71704 10.3008C6.93318 9.46417 7.5888 8.69246 8.16726 8.16176C8.74569 7.63106 9.3674 6.91254 10.1744 6.74232C10.2742 6.71449 10.3964 6.70452 10.4678 6.77087L11.1226 7.43774C11.3486 7.60905 11.6755 7.69208 11.9169 7.55199H11.9278L14.1482 6.24132C14.4741 6.03704 14.5078 5.64216 14.2745 5.40197L12.7452 3.88476C12.5194 3.65316 12.2194 3.5753 11.9279 3.57495C10.6387 3.61358 9.42051 4.24634 8.41995 4.8966C6.7776 6.0914 5.27111 7.57329 4.32533 9.36364C3.9626 10.1144 3.53649 11.0723 3.57715 11.9103C3.58078 12.2255 3.66607 12.5343 3.88807 12.7375L5.41737 14.2668C5.5365 14.3682 5.65435 14.4185 5.76562 14.4251V14.4251Z" fill="white"/>
</svg>
