<svg width="112" height="112" viewBox="0 0 112 112" fill="none" xmlns="http://www.w3.org/2000/svg">
<circle cx="55" cy="58" r="50" fill="black"/>
<g clip-path="url(#clip0_1:115)">
<path d="M73.7197 50.375L79.8135 56.9131L71.2441 59.5791L73.2754 68.2754L65.2139 66.4346L71.6885 87.0645C71.6885 88.4609 71.096 89.5612 69.9111 90.3652L66.6104 87.0645L62.6748 91C61.7438 90.7884 60.9821 90.3123 60.3897 89.5718C59.7972 88.8312 59.501 87.9954 59.501 87.0645L55.375 73.9883L51.3125 87.0645C51.3125 87.9954 51.0163 88.8312 50.4238 89.5718C49.8314 90.3123 49.0697 90.7884 48.1387 91L44.2031 87.0645L40.9023 90.3652C39.7174 89.5612 39.125 88.4609 39.125 87.0645L45.5996 66.4346L37.5381 68.2754L39.5693 59.5791L31 56.9131L37.0938 50.375L31 43.8369L39.5693 41.2344L37.5381 32.5381L46.2344 34.5693L48.8369 26L55.375 32.0938L61.9131 26L64.5791 34.5693L73.2754 32.5381L71.2441 41.2344L79.8135 43.8369L73.7197 50.375ZM55.4067 38.1875C52.0425 38.1875 49.1649 39.383 46.7739 41.7739C44.383 44.1649 43.1875 47.0425 43.1875 50.4067C43.1875 53.771 44.383 56.6486 46.7739 59.0396C49.1649 61.4305 52.0425 62.626 55.4067 62.626C58.771 62.626 61.6486 61.4305 64.0396 59.0396C66.4305 56.6486 67.626 53.771 67.626 50.4067C67.626 47.0425 66.4305 44.1649 64.0396 41.7739C61.6486 39.383 58.771 38.1875 55.4067 38.1875Z" fill="white"/>
</g>
<defs>
<clipPath id="clip0_1:115">
<rect width="48.8135" height="65" fill="white" transform="translate(31 26)"/>
</clipPath>
</defs>
</svg>
