<svg width="112" height="112" viewBox="0 0 112 112" fill="none" xmlns="http://www.w3.org/2000/svg">
<circle cx="54" cy="51" r="50" fill="black"/>
<g clip-path="url(#clip0_1:106)">
<path d="M52.5884 37.8949L58.7126 39.5087C58.9206 39.5573 59.1067 39.6733 59.242 39.8386C59.3773 40.0039 59.4542 40.2092 59.4608 40.4227C59.4608 40.9418 58.9992 41.3706 58.4316 41.3706H54.4142C53.9813 41.3694 53.5526 41.2851 53.1515 41.1224C52.5602 40.8741 51.8786 40.9305 51.4249 41.3481L49.2808 43.3229C49.1816 43.4097 49.0961 43.5109 49.0269 43.6231C48.9384 43.7683 48.8795 43.9295 48.8536 44.0976C48.8277 44.2657 48.8353 44.4372 48.876 44.6023C48.9167 44.7674 48.9897 44.9229 49.0907 45.0597C49.1918 45.1964 49.3189 45.3119 49.4648 45.3993C50.6522 46.1119 51.9816 46.5549 53.3591 46.697V48.6944C53.3591 49.6875 54.2427 50.5 55.3193 50.5H57.2794C58.3571 50.5 59.2407 49.6875 59.2407 48.6944V46.7083C62.9568 46.3021 65.7678 43.21 65.278 39.5989C64.9226 37.0034 62.7435 34.9383 60.0239 34.2161L53.8997 32.6024C53.6917 32.5538 53.5056 32.4378 53.3703 32.2725C53.235 32.1072 53.158 31.9018 53.1515 31.6883C53.1515 31.1692 53.613 30.7404 54.1806 30.7404H58.198C58.6324 30.7411 59.0627 30.8254 59.4653 30.9887C60.0555 31.237 60.7382 31.1805 61.1918 30.763L63.3359 28.7882C63.4318 28.7032 63.5144 28.6043 63.5808 28.4948C63.6701 28.3496 63.7297 28.1882 63.7562 28.0199C63.7828 27.8515 63.7757 27.6796 63.7354 27.5141C63.6951 27.3485 63.6224 27.1925 63.5215 27.0552C63.4206 26.9179 63.2935 26.8019 63.1475 26.714C61.9597 26.0014 60.6298 25.5584 59.252 25.4163V23.4166C59.252 22.4236 58.3695 21.6111 57.2918 21.6111H55.3317C54.254 21.6111 53.3715 22.4236 53.3715 23.4166V25.4028C49.66 25.809 46.8433 28.901 47.3331 32.5121C47.6874 35.1076 49.8733 37.1727 52.5884 37.8949ZM85.7891 58.6363C84.4576 57.4288 82.3812 57.5078 80.9819 58.6363L70.5548 66.9757C69.2748 68.0025 67.6818 68.5601 66.0409 68.5555H52.6944C52.2156 68.5555 51.7563 68.3653 51.4177 68.0267C51.0791 67.6881 50.8889 67.2288 50.8889 66.75C50.8889 66.2711 51.0791 65.8119 51.4177 65.4732C51.7563 65.1346 52.2156 64.9444 52.6944 64.9444H61.5293C63.3235 64.9444 64.9948 63.7144 65.2814 61.9427C65.3168 61.7392 65.3341 61.533 65.3333 61.3265C65.3315 60.37 64.9503 59.4532 64.2733 58.7775C63.5962 58.1017 62.6788 57.7222 61.7222 57.7222H43.6667C40.6216 57.723 37.6694 58.7704 35.3047 60.6889L30.0573 64.9444H23.8056C23.3267 64.9444 22.8674 65.1346 22.5288 65.4732C22.1902 65.8119 22 66.2711 22 66.75V77.5833C22 78.0622 22.1902 78.5214 22.5288 78.86C22.8674 79.1986 23.3267 79.3889 23.8056 79.3889H64.0661C65.7064 79.3901 67.2984 78.833 68.5799 77.809L85.6458 64.1545C86.0564 63.8261 86.3902 63.4121 86.6242 62.9414C86.8581 62.4706 86.9864 61.9544 87.0002 61.4289C87.0139 60.9034 86.9128 60.3813 86.7038 59.8989C86.4948 59.4165 86.1831 58.9856 85.7903 58.6363H85.7891Z" fill="white"/>
</g>
<defs>
<clipPath id="clip0_1:106">
<rect width="65" height="65" fill="white" transform="translate(22 18)"/>
</clipPath>
</defs>
</svg>
