<svg width="238" height="37" viewBox="0 0 238 37" fill="none" xmlns="http://www.w3.org/2000/svg">
<path d="M16.6564 3.1989L12.4618 11.7038L3.07687 13.072C1.39389 13.3161 0.719407 15.3909 1.93989 16.5793L8.72965 23.1956L7.12375 32.542C6.83468 34.2314 8.61403 35.4968 10.1043 34.7067L18.5 30.2937L26.8956 34.7067C28.3859 35.4904 30.1652 34.2314 29.8762 32.542L28.2703 23.1956L35.06 16.5793C36.2805 15.3909 35.606 13.3161 33.9231 13.072L24.5382 11.7038L20.3435 3.1989C19.592 1.68293 17.4144 1.66366 16.6564 3.1989Z" fill="#FFA707"/>
<path d="M66.6564 3.1989L62.4618 11.7038L53.0769 13.072C51.3939 13.3161 50.7194 15.3909 51.9399 16.5793L58.7296 23.1956L57.1237 32.542C56.8347 34.2314 58.614 35.4968 60.1043 34.7067L68.5 30.2937L76.8956 34.7067C78.3859 35.4904 80.1652 34.2314 79.8762 32.542L78.2703 23.1956L85.06 16.5793C86.2805 15.3909 85.606 13.3161 83.9231 13.072L74.5382 11.7038L70.3435 3.1989C69.592 1.68293 67.4144 1.66366 66.6564 3.1989Z" fill="#FFA707"/>
<path d="M117.107 3.1989L112.799 11.7038L103.16 13.072C101.432 13.3161 100.739 15.3909 101.992 16.5793L108.966 23.1956L107.316 32.542C107.019 34.2314 108.847 35.4968 110.377 34.7067L119 30.2937L127.623 34.7067C129.153 35.4904 130.981 34.2314 130.684 32.542L129.034 23.1956L136.008 16.5793C137.261 15.3909 136.568 13.3161 134.84 13.072L125.201 11.7038L120.893 3.1989C120.122 1.68293 117.885 1.66366 117.107 3.1989Z" fill="#FFA707"/>
<path d="M167.656 3.1989L163.462 11.7038L154.077 13.072C152.394 13.3161 151.719 15.3909 152.94 16.5793L159.73 23.1956L158.124 32.542C157.835 34.2314 159.614 35.4968 161.104 34.7067L169.5 30.2937L177.896 34.7067C179.386 35.4904 181.165 34.2314 180.876 32.542L179.27 23.1956L186.06 16.5793C187.281 15.3909 186.606 13.3161 184.923 13.072L175.538 11.7038L171.344 3.1989C170.592 1.68293 168.414 1.66366 167.656 3.1989Z" fill="#FFA707"/>
<path d="M217.656 3.1989L213.462 11.7038L204.077 13.072C202.394 13.3161 201.719 15.3909 202.94 16.5793L209.73 23.1956L208.124 32.542C207.835 34.2314 209.614 35.4968 211.104 34.7067L219.5 30.2937L227.896 34.7067C229.386 35.4904 231.165 34.2314 230.876 32.542L229.27 23.1956L236.06 16.5793C237.281 15.3909 236.606 13.3161 234.923 13.072L225.538 11.7038L221.344 3.1989C220.592 1.68293 218.414 1.66366 217.656 3.1989Z" fill="#FFA707"/>
</svg>
