<svg width="112" height="112" viewBox="0 0 112 112" fill="none" xmlns="http://www.w3.org/2000/svg">
<circle cx="54" cy="51" r="50" fill="black"/>
<path d="M66.1492 32H57.425C56.6125 32 55.8305 32.3047 55.2313 32.8531L45.2477 41.9937C45.2375 42.0039 45.2273 42.0242 45.2172 42.0344C43.5312 43.6188 43.5617 46.1477 45.0039 47.7219C46.2938 49.1336 49.0055 49.5094 50.7016 47.9961C50.7117 47.9859 50.732 47.9859 50.7422 47.9758L58.857 40.5414C59.5172 39.9422 60.5531 39.9828 61.1523 40.643C61.7617 41.3031 61.7109 42.3289 61.0508 42.9383L58.4 45.3656L73.1875 57.3703C73.482 57.6141 73.7461 57.8781 73.9898 58.1523V38.5L68.4445 32.9547C67.8453 32.3453 67.0125 32 66.1492 32ZM77.25 38.5203V61.2602C77.25 63.0578 78.7023 64.5102 80.5 64.5102H87V38.5203H77.25ZM82.125 61.2602C81.2313 61.2602 80.5 60.5289 80.5 59.6352C80.5 58.7414 81.2313 58.0102 82.125 58.0102C83.0187 58.0102 83.75 58.7414 83.75 59.6352C83.75 60.5289 83.0187 61.2602 82.125 61.2602ZM22 64.5H28.5C30.2977 64.5 31.75 63.0477 31.75 61.25V38.5203H22V64.5ZM26.875 58.0102C27.7688 58.0102 28.5 58.7414 28.5 59.6352C28.5 60.5289 27.7688 61.2602 26.875 61.2602C25.9813 61.2602 25.25 60.5289 25.25 59.6352C25.25 58.7313 25.9813 58.0102 26.875 58.0102ZM71.1461 59.8992L55.9828 47.5898L52.9359 50.3828C49.9195 53.1352 45.2984 52.8711 42.607 49.9359C39.875 46.95 40.0883 42.3289 43.0539 39.607L51.3617 32H42.8508C41.9875 32 41.1648 32.3453 40.5555 32.9547L35 38.5V61.2398H36.8586L46.05 69.5578C48.8328 71.8227 52.9258 71.3961 55.1906 68.6133L55.2109 68.593L57.0289 70.1672C58.6437 71.4875 61.0305 71.2336 62.3406 69.6187L65.5297 65.6984L66.0781 66.1453C67.4695 67.2727 69.5211 67.0695 70.6484 65.668L71.6133 64.4797C72.7508 63.0781 72.5375 61.0367 71.1461 59.8992Z" fill="white"/>
</svg>
