<svg width="166" height="50" viewBox="0 0 166 50" fill="none" xmlns="http://www.w3.org/2000/svg">
<path d="M24.2188 25.1094C24.2188 31.7972 18.7972 37.2188 12.1094 37.2188C5.42153 37.2188 0 31.7972 0 25.1094C0 18.4215 5.42153 13 12.1094 13C18.7972 13 24.2188 18.4215 24.2188 25.1094ZM10.7087 31.5212L19.6931 22.5368C19.9981 22.2317 19.9981 21.7371 19.6931 21.432L18.5882 20.3271C18.2832 20.022 17.7885 20.022 17.4833 20.3271L10.1562 27.6542L6.7354 24.2333C6.43032 23.9283 5.93564 23.9283 5.63052 24.2333L4.52568 25.3382C4.22061 25.6433 4.22061 26.1379 4.52568 26.443L9.60381 31.5211C9.90894 31.8263 10.4036 31.8263 10.7087 31.5212Z" fill="#23D34A"/>
<path d="M42.7365 28.12L44.9145 20.956H48.1905L44.6265 31H40.8285L37.2645 20.956H40.5585L42.7365 28.12ZM58.9541 25.816C58.9541 26.104 58.9361 26.404 58.9001 26.716H51.9341C51.9821 27.34 52.1801 27.82 52.5281 28.156C52.8881 28.48 53.3261 28.642 53.8421 28.642C54.6101 28.642 55.1441 28.318 55.4441 27.67H58.7201C58.5521 28.33 58.2461 28.924 57.8021 29.452C57.3701 29.98 56.8241 30.394 56.1641 30.694C55.5041 30.994 54.7661 31.144 53.9501 31.144C52.9661 31.144 52.0901 30.934 51.3221 30.514C50.5541 30.094 49.9541 29.494 49.5221 28.714C49.0901 27.934 48.8741 27.022 48.8741 25.978C48.8741 24.934 49.0841 24.022 49.5041 23.242C49.9361 22.462 50.5361 21.862 51.3041 21.442C52.0721 21.022 52.9541 20.812 53.9501 20.812C54.9221 20.812 55.7861 21.016 56.5421 21.424C57.2981 21.832 57.8861 22.414 58.3061 23.17C58.7381 23.926 58.9541 24.808 58.9541 25.816ZM55.8041 25.006C55.8041 24.478 55.6241 24.058 55.2641 23.746C54.9041 23.434 54.4541 23.278 53.9141 23.278C53.3981 23.278 52.9601 23.428 52.6001 23.728C52.2521 24.028 52.0361 24.454 51.9521 25.006H55.8041ZM63.6559 22.63C64.0159 22.078 64.4659 21.646 65.0059 21.334C65.5459 21.01 66.1459 20.848 66.8059 20.848V24.106H65.9599C65.1919 24.106 64.6159 24.274 64.2319 24.61C63.8479 24.934 63.6559 25.51 63.6559 26.338V31H60.5779V20.956H63.6559V22.63ZM69.8251 19.912C69.2851 19.912 68.8411 19.756 68.4931 19.444C68.1571 19.12 67.9891 18.724 67.9891 18.256C67.9891 17.776 68.1571 17.38 68.4931 17.068C68.8411 16.744 69.2851 16.582 69.8251 16.582C70.3531 16.582 70.7851 16.744 71.1211 17.068C71.4691 17.38 71.6431 17.776 71.6431 18.256C71.6431 18.724 71.4691 19.12 71.1211 19.444C70.7851 19.756 70.3531 19.912 69.8251 19.912ZM71.3551 20.956V31H68.2771V20.956H71.3551ZM78.6257 23.512H76.9697V31H73.8917V23.512H72.7757V20.956H73.8917V20.668C73.8917 19.432 74.2457 18.496 74.9537 17.86C75.6617 17.212 76.6997 16.888 78.0677 16.888C78.2957 16.888 78.4637 16.894 78.5717 16.906V19.516C77.9837 19.48 77.5697 19.564 77.3297 19.768C77.0897 19.972 76.9697 20.338 76.9697 20.866V20.956H78.6257V23.512ZM81.6201 19.912C81.0801 19.912 80.6361 19.756 80.2881 19.444C79.9521 19.12 79.7841 18.724 79.7841 18.256C79.7841 17.776 79.9521 17.38 80.2881 17.068C80.6361 16.744 81.0801 16.582 81.6201 16.582C82.1481 16.582 82.5801 16.744 82.9161 17.068C83.2641 17.38 83.4381 17.776 83.4381 18.256C83.4381 18.724 83.2641 19.12 82.9161 19.444C82.5801 19.756 82.1481 19.912 81.6201 19.912ZM83.1501 20.956V31H80.0721V20.956H83.1501ZM94.8486 25.816C94.8486 26.104 94.8306 26.404 94.7946 26.716H87.8286C87.8766 27.34 88.0746 27.82 88.4226 28.156C88.7826 28.48 89.2206 28.642 89.7366 28.642C90.5046 28.642 91.0386 28.318 91.3386 27.67H94.6146C94.4466 28.33 94.1406 28.924 93.6966 29.452C93.2646 29.98 92.7186 30.394 92.0586 30.694C91.3986 30.994 90.6606 31.144 89.8446 31.144C88.8606 31.144 87.9846 30.934 87.2166 30.514C86.4486 30.094 85.8486 29.494 85.4166 28.714C84.9846 27.934 84.7686 27.022 84.7686 25.978C84.7686 24.934 84.9786 24.022 85.3986 23.242C85.8306 22.462 86.4306 21.862 87.1986 21.442C87.9666 21.022 88.8486 20.812 89.8446 20.812C90.8166 20.812 91.6806 21.016 92.4366 21.424C93.1926 21.832 93.7806 22.414 94.2006 23.17C94.6326 23.926 94.8486 24.808 94.8486 25.816ZM91.6986 25.006C91.6986 24.478 91.5186 24.058 91.1586 23.746C90.7986 23.434 90.3486 23.278 89.8086 23.278C89.2926 23.278 88.8546 23.428 88.4946 23.728C88.1466 24.028 87.9306 24.454 87.8466 25.006H91.6986ZM95.8604 25.96C95.8604 24.928 96.0524 24.022 96.4364 23.242C96.8324 22.462 97.3664 21.862 98.0384 21.442C98.7104 21.022 99.4604 20.812 100.288 20.812C100.948 20.812 101.548 20.95 102.088 21.226C102.64 21.502 103.072 21.874 103.384 22.342V17.68H106.462V31H103.384V29.56C103.096 30.04 102.682 30.424 102.142 30.712C101.614 31 100.996 31.144 100.288 31.144C99.4604 31.144 98.7104 30.934 98.0384 30.514C97.3664 30.082 96.8324 29.476 96.4364 28.696C96.0524 27.904 95.8604 26.992 95.8604 25.96ZM103.384 25.978C103.384 25.21 103.168 24.604 102.736 24.16C102.316 23.716 101.8 23.494 101.188 23.494C100.576 23.494 100.054 23.716 99.6224 24.16C99.2024 24.592 98.9924 25.192 98.9924 25.96C98.9924 26.728 99.2024 27.34 99.6224 27.796C100.054 28.24 100.576 28.462 101.188 28.462C101.8 28.462 102.316 28.24 102.736 27.796C103.168 27.352 103.384 26.746 103.384 25.978ZM115.582 22.378C115.87 21.91 116.284 21.532 116.824 21.244C117.364 20.956 117.982 20.812 118.678 20.812C119.506 20.812 120.256 21.022 120.928 21.442C121.6 21.862 122.128 22.462 122.512 23.242C122.908 24.022 123.106 24.928 123.106 25.96C123.106 26.992 122.908 27.904 122.512 28.696C122.128 29.476 121.6 30.082 120.928 30.514C120.256 30.934 119.506 31.144 118.678 31.144C117.97 31.144 117.352 31.006 116.824 30.73C116.296 30.442 115.882 30.064 115.582 29.596V31H112.504V17.68H115.582V22.378ZM119.974 25.96C119.974 25.192 119.758 24.592 119.326 24.16C118.906 23.716 118.384 23.494 117.76 23.494C117.148 23.494 116.626 23.716 116.194 24.16C115.774 24.604 115.564 25.21 115.564 25.978C115.564 26.746 115.774 27.352 116.194 27.796C116.626 28.24 117.148 28.462 117.76 28.462C118.372 28.462 118.894 28.24 119.326 27.796C119.758 27.34 119.974 26.728 119.974 25.96ZM134.638 20.956V31H131.56V29.632C131.248 30.076 130.822 30.436 130.282 30.712C129.754 30.976 129.166 31.108 128.518 31.108C127.75 31.108 127.072 30.94 126.484 30.604C125.896 30.256 125.44 29.758 125.116 29.11C124.792 28.462 124.63 27.7 124.63 26.824V20.956H127.69V26.41C127.69 27.082 127.864 27.604 128.212 27.976C128.56 28.348 129.028 28.534 129.616 28.534C130.216 28.534 130.69 28.348 131.038 27.976C131.386 27.604 131.56 27.082 131.56 26.41V20.956H134.638ZM147.109 20.956L140.809 35.77H137.497L139.801 30.658L135.715 20.956H139.153L141.475 27.238L143.779 20.956H147.109ZM157.69 25.816C157.69 26.104 157.672 26.404 157.636 26.716H150.67C150.718 27.34 150.916 27.82 151.264 28.156C151.624 28.48 152.062 28.642 152.578 28.642C153.346 28.642 153.88 28.318 154.18 27.67H157.456C157.288 28.33 156.982 28.924 156.538 29.452C156.106 29.98 155.56 30.394 154.9 30.694C154.24 30.994 153.502 31.144 152.686 31.144C151.702 31.144 150.826 30.934 150.058 30.514C149.29 30.094 148.69 29.494 148.258 28.714C147.826 27.934 147.61 27.022 147.61 25.978C147.61 24.934 147.82 24.022 148.24 23.242C148.672 22.462 149.272 21.862 150.04 21.442C150.808 21.022 151.69 20.812 152.686 20.812C153.658 20.812 154.522 21.016 155.278 21.424C156.034 21.832 156.622 22.414 157.042 23.17C157.474 23.926 157.69 24.808 157.69 25.816ZM154.54 25.006C154.54 24.478 154.36 24.058 154 23.746C153.64 23.434 153.19 23.278 152.65 23.278C152.134 23.278 151.696 23.428 151.336 23.728C150.988 24.028 150.772 24.454 150.688 25.006H154.54ZM162.392 22.63C162.752 22.078 163.202 21.646 163.742 21.334C164.282 21.01 164.882 20.848 165.542 20.848V24.106H164.696C163.928 24.106 163.352 24.274 162.968 24.61C162.584 24.934 162.392 25.51 162.392 26.338V31H159.314V20.956H162.392V22.63Z" fill="#23D34A"/>
</svg>
